# xmcd
#
# Track frame offsets:
#	150
#	11432
#	22391
#	32503
#	52538
#	70698
#	83818
#	95610
#	108458
#	124552
#	136684
#	152568
#	163135
#	174701
#
# Disc length: 2460 seconds
#
# Revision: 0
# Processed by: cddbd v1.5PL3 Copyright (c) Steve Scherf et al.
# Submitted via: dBpowerAMP V4.0
#
DISCID=a6099a0e
DTITLE=John Lee Hooker - Boom Boom
DYEAR=1900
DGENRE=Blues
TTITLE0=This Is Hip
TTITLE1=No Shoes
TTITLE2=I Wanna Walk
TTITLE3=Nightmare
TTITLE4=Sally Mae
TTITLE5=I'm So Excited
TTITLE6=Boogie Chillun
TTITLE7=I Can't Belive
TTITLE8=My First Wife Left Me
TTITLE9=I'm A Stranger
TTITLE10=It Serves Me Right To Suffer
TTITLE11=Dusty Road
TTITLE12=I Love You Honey
TTITLE13=Dimples
EXTD=
EXTT0=
EXTT1=
EXTT2=
EXTT3=
EXTT4=
EXTT5=
EXTT6=
EXTT7=
EXTT8=
EXTT9=
EXTT10=
EXTT11=
EXTT12=
EXTT13=
PLAYORDER=
